<?xml version="1.0" standalone="no"?>
<!DOCTYPE svg PUBLIC "-//W3C//DTD SVG 20010904//EN"
 "http://www.w3.org/TR/2001/REC-SVG-20010904/DTD/svg10.dtd">
<svg version="1.0" xmlns="http://www.w3.org/2000/svg"
 width="1920.000000pt" height="1080.000000pt" viewBox="0 0 1920.000000 1080.000000"
 preserveAspectRatio="xMidYMid meet">

<g transform="translate(0.000000,1080.000000) scale(0.100000,-0.100000)"
fill="#000000" stroke="none">
<path d="M9452 8120 c-221 -40 -382 -185 -437 -395 -21 -81 -21 -254 0 -335
46 -178 160 -304 333 -368 99 -36 267 -42 382 -13 198 50 334 186 385 386 19
76 19 241 0 324 -44 187 -190 336 -376 387 -69 18 -219 26 -287 14z"/>
<path d="M8513 7949 c-118 -20 -392 -122 -693 -257 -236 -106 -370 -174 -381
-195 -15 -28 11 -61 60 -76 54 -16 109 -65 135 -121 21 -45 21 -51 26 -1590
l5 -1545 24 -53 c27 -61 66 -97 119 -112 23 -6 222 -10 530 -10 l494 0 -27 31
c-39 47 -74 123 -93 198 -14 59 -16 248 -19 1861 -2 1184 -7 1804 -13 1820
-20 48 -77 65 -167 49z"/>
<path d="M1145 7929 c-512 -109 -896 -527 -955 -1039 -11 -101 5 -326 30 -423
76 -288 250 -498 557 -671 169 -95 487 -219 793 -310 312 -92 493 -187 625
-327 109 -116 156 -236 156 -399 0 -237 -173 -440 -431 -506 -77 -20 -256 -14
-331 9 -168 54 -266 166 -303 349 -20 97 -20 311 -1 473 24 195 19 243 -28
293 -38 42 -94 63 -161 64 -225 1 -820 -343 -915 -529 -27 -54 -28 -134 -2
-235 86 -334 443 -621 885 -713 263 -54 605 -31 880 60 505 165 849 581 948
1145 19 111 16 366 -5 469 -68 322 -260 571 -557 725 -191 99 -325 132 -665
165 -719 71 -1050 188 -1153 408 -36 77 -38 187 -5 249 57 108 133 154 252
154 95 0 232 -28 348 -70 48 -18 198 -88 333 -155 257 -129 389 -183 507 -210
94 -21 246 -33 307 -23 215 33 452 326 562 693 21 73 27 112 28 202 1 99 -1
115 -20 140 -33 45 -92 44 -180 -3 -188 -101 -253 -119 -409 -111 -133 7 -207
21 -409 74 -93 24 -205 51 -250 59 -116 20 -320 17 -431 -7z"/>
<path d="M4161 7515 c-51 -30 -103 -72 -265 -215 -320 -283 -455 -388 -617
-482 -91 -52 -186 -88 -236 -88 l-33 0 0 -99 0 -99 100 -4 c114 -4 141 -17
175 -84 19 -38 20 -65 26 -879 6 -924 6 -924 70 -1120 41 -121 88 -203 167
-286 139 -149 328 -219 590 -220 124 -1 216 18 300 60 63 32 125 91 141 134
12 31 11 31 -50 41 -48 8 -117 69 -152 134 -15 28 -37 86 -49 129 -22 78 -23
82 -26 1086 l-3 1007 140 0 139 0 40 -102 c22 -57 57 -159 77 -228 68 -233
127 -424 200 -660 121 -386 191 -625 240 -815 118 -452 210 -636 354 -707 45
-23 54 -23 464 -28 l419 -5 24 -28 c30 -35 30 -49 0 -113 -49 -106 -184 -198
-336 -230 -53 -11 -105 -14 -180 -11 -120 6 -196 27 -342 94 -118 53 -158 62
-193 39 -37 -25 -95 -157 -173 -396 -86 -261 -92 -284 -92 -337 0 -35 6 -48
35 -77 102 -102 404 -181 601 -157 290 35 483 192 668 541 73 139 217 473 271
630 23 69 125 355 225 635 379 1060 490 1446 491 1700 0 300 -132 482 -367
505 -386 38 -954 -266 -958 -512 -1 -59 28 -92 128 -144 205 -106 312 -188
391 -299 98 -136 154 -306 176 -526 45 -462 -112 -1049 -280 -1049 -61 0 -165
188 -255 460 -71 215 -109 347 -212 740 -47 179 -107 408 -134 510 -63 239
-89 369 -96 483 -6 88 -3 109 33 265 l5 22 -751 0 -751 0 0 370 c0 306 -3 376
-15 399 -25 49 -59 53 -124 16z"/>
<path d="M9875 6770 c-95 -21 -275 -88 -469 -175 -214 -95 -511 -242 -525
-259 -25 -30 -5 -63 52 -89 30 -13 63 -37 74 -53 49 -70 48 -50 48 -1009 0
-823 -1 -906 -17 -968 -19 -74 -47 -134 -84 -184 -13 -17 -24 -34 -24 -37 0
-3 290 -6 645 -6 355 0 645 2 645 5 0 3 -15 24 -33 48 -33 44 -56 96 -78 177
-10 34 -14 351 -18 1276 -6 1192 -7 1233 -25 1253 -17 19 -76 42 -101 40 -5 0
-46 -9 -90 -19z"/>
<path d="M11230 6761 c-481 -102 -824 -601 -879 -1281 -16 -203 5 -472 54
-658 62 -243 192 -473 348 -618 172 -160 363 -244 603 -263 320 -25 521 74
718 357 39 55 64 82 75 80 15 -3 16 -72 21 -778 4 -591 8 -780 17 -797 53 -92
295 -25 898 250 127 57 253 115 282 127 82 35 84 85 5 115 -70 27 -108 61
-139 123 l-28 57 0 1465 c0 1164 3 1479 13 1535 14 77 49 162 87 211 14 18 25
35 25 39 0 3 -226 5 -502 3 -498 -3 -503 -3 -545 -25 -51 -28 -76 -62 -96
-134 -32 -110 -75 -117 -174 -26 -133 122 -239 184 -371 218 -99 25 -292 25
-412 0z m745 -410 c98 -44 161 -181 185 -403 13 -124 13 -954 0 -1073 -20
-173 -59 -282 -130 -359 -62 -67 -117 -90 -215 -89 -251 1 -384 184 -425 586
-17 163 -14 605 4 732 50 345 162 538 349 605 70 25 179 25 232 1z"/>
<path d="M17625 6765 c-293 -47 -523 -162 -721 -359 -235 -234 -367 -540 -405
-936 -53 -562 192 -1044 676 -1331 254 -150 544 -219 840 -199 413 28 737 218
904 532 89 166 110 360 41 368 -36 5 -53 -2 -93 -38 -102 -93 -192 -134 -333
-153 -291 -38 -704 107 -1046 368 -106 81 -157 176 -114 212 10 9 145 11 507
9 371 -2 514 0 574 10 376 62 525 203 525 497 0 289 -103 541 -304 740 -128
127 -282 212 -486 267 -100 27 -429 35 -565 13z m-139 -416 c271 -37 533 -200
629 -389 61 -120 75 -257 34 -330 -69 -123 -288 -187 -664 -191 -143 -2 -191
1 -235 14 -192 57 -311 254 -314 517 -1 96 1 110 27 161 59 121 183 196 367
223 49 7 79 6 156 -5z"/>
<path d="M13460 6724 c0 -3 14 -25 31 -50 38 -56 57 -101 76 -183 13 -56 17
-210 23 -976 8 -974 8 -971 60 -1132 70 -214 204 -359 386 -417 117 -38 355
-36 489 5 93 28 191 79 262 135 70 55 88 75 210 227 67 84 105 123 130 134 22
9 39 11 45 5 5 -5 13 -79 17 -163 8 -162 20 -211 64 -257 54 -58 38 -57 590
-60 279 -2 507 0 507 4 0 3 -11 20 -25 36 -37 44 -63 98 -83 175 -16 63 -17
154 -17 1148 0 1155 -1 1136 50 1250 12 27 34 64 48 81 15 18 27 35 27 38 0 3
-290 6 -645 6 -355 0 -645 -2 -645 -4 0 -2 16 -27 35 -56 87 -130 99 -255 92
-1045 -4 -501 -7 -590 -22 -655 -34 -149 -94 -242 -188 -292 -33 -18 -59 -23
-122 -23 -96 0 -141 22 -180 89 -55 95 -56 109 -53 950 4 743 4 773 24 837 22
70 62 147 88 169 9 7 16 16 16 21 0 5 -282 9 -645 9 -355 0 -645 -3 -645 -6z"/>
</g>
</svg>
